<?xml version="1.0" encoding="utf-8"?>
<!-- Generator: Adobe Illustrator 15.0.0, SVG Export Plug-In . SVG Version: 6.00 Build 0)  -->
<!DOCTYPE svg PUBLIC "-//W3C//DTD SVG 1.1//EN" "http://www.w3.org/Graphics/SVG/1.1/DTD/svg11.dtd">
<svg version="1.1" xmlns="http://www.w3.org/2000/svg" xmlns:xlink="http://www.w3.org/1999/xlink" x="0px" y="0px" width="129px"
	 height="128.333px" viewBox="0 0 129 128.333" enable-background="new 0 0 129 128.333" xml:space="preserve">
<g id="Layer_1">
	<path fill="#1689E5" stroke="#FCFCFC" stroke-width="0.5" stroke-miterlimit="10" d="M75.241,32.052
		C73.829,13.384,63.634,14.544,54.022,8.508l0,0c-6.412,8.188-16.863,14.006-9.879,31.778"/>
	<path fill="#1689E5" stroke="#FCFCFC" stroke-width="0.5" stroke-miterlimit="10" d="M97.878,78.339
		c18.656,1.549,19.117-8.705,26.596-17.242l0,0c-7.072-7.623-11.172-18.861-29.822-14.766"/>
	<path fill="#1689E5" stroke="#FCFCFC" stroke-width="0.5" stroke-miterlimit="10" d="M96.202,49.794
		c14.02-12.406,6.934-19.83,5.936-31.134l0,0c-10.398-0.162-21.35-4.972-31.287,11.333"/>
	<path fill="#1689E5" stroke="#FCFCFC" stroke-width="0.5" stroke-miterlimit="10" d="M43.991,37.771
		c-16.094-9.563-20.998-0.547-31.459,3.855l0,0c3.022,9.951,1.785,21.85,20.347,26.334"/>
	<path fill="#1689E5" stroke="#FCFCFC" stroke-width="0.5" stroke-miterlimit="10" d="M30.827,65.833
		c-16.962,7.92-12.271,17.049-14.521,28.172l0,0c9.927,3.104,19.064,10.822,33.218-1.996"/>
	<path fill="#1689E5" stroke="#FCFCFC" stroke-width="0.5" stroke-miterlimit="10" d="M45.478,94.224
		c-4.531,18.162,5.514,20.268,12.736,29.02l0,0c8.662-5.756,20.414-7.992,19.371-27.059"/>
	<path fill="#1689E5" stroke="#FCFCFC" stroke-width="0.5" stroke-miterlimit="10" d="M76.63,100.769
		c12.439,13.99,19.844,6.883,31.146,5.855l0,0c0.133-10.4,4.916-21.365-11.414-31.258"/>
	<path fill="#A1D579" stroke="#A1D579" stroke-width="0.5" stroke-miterlimit="10" d="M73.183,31.806
		c-2.764-22.163-34.77-16.522-27.812,7.563l-0.785,0.287C25.754,27.647,9.682,55.894,32.666,65.899l0.184,0.477
		c-21.487,12.91-1.875,38.826,15.232,24.469l-0.554,0.631c-4.663,24.629,27.731,27.24,28.399,4.916l0.434,0.752
		c16.979,18.441,38.406-5.99,20.896-19.854l0.479-0.498c25.006-1.766,19.275-33.756-2.48-28.717l0.52,0.67
		c15.83-19.436-11.41-37.159-22.633-17.85"/>
	<circle fill="#A1D579" cx="66.374" cy="64.524" r="33.535"/>
	<circle fill="#1689E5" cx="66.374" cy="64.524" r="24.484"/>
	<g>
		<path fill="#FFFFFF" d="M58.875,51.315c5.423,0,10.845,0,16.269,0c-0.422,0.65-0.789,1.24-1.238,1.91
			c-0.123,0.186-0.324,0.549-0.465,0.594c-0.246,0.08-0.76,0-1.059,0c-1.09,0-2.139,0-3.178,0c0.514,0.658,1.029,1.537,1.215,2.607
			c1.574,0,3.15,0,4.725,0c-0.422,0.621-0.799,1.256-1.238,1.912c-0.119,0.178-0.328,0.551-0.465,0.594
			c-0.172,0.057-0.494,0-0.723,0c-0.773,0-1.508,0-2.248,0c-0.805,4.123-3.918,6.041-8.393,6.457
			c2.383,3.059,4.914,6.193,7.359,9.246c0.826,1.033,1.664,2.049,2.428,3.1c-1.387,0-2.771,0-4.158,0
			c-3.012-3.672-5.973-7.436-8.961-11.184c-0.193-0.242-0.547-0.563-0.596-0.773c-0.069-0.328-0.017-0.771-0.023-1.137
			c-0.01-0.416-0.014-0.813,0.023-1.162c4.668,0.225,8.383-0.502,8.782-4.545c-3.229,0-6.457,0-9.685,0
			c0.538-0.857,1.081-1.709,1.68-2.506c2.558,0,5.113,0,7.669,0c-1.049-2.938-5.338-2.635-9.349-2.607
			C57.769,52.964,58.35,52.167,58.875,51.315z"/>
	</g>
	<path fill="#FFFFFF" stroke="#18406A" stroke-width="0.5" stroke-miterlimit="10" d="M95.171,46.972
		c-3.168-4.031-9.459-12.596-20.672-15.238c10.418-16.467,32.006-1.357,20.453,15.238"/>
	<path fill="#FFFFFF" stroke="#18406A" stroke-width="0.5" stroke-miterlimit="10" d="M49.024,92.489
		c4.656,2.148,14.153,6.918,25.342,4.174c-1.791,19.402-27.889,15.76-25.147-4.273"/>
	<path fill="#FFFFFF" stroke="#18406A" stroke-width="0.5" stroke-miterlimit="10" d="M77.651,96.108
		c4.547-2.369,14.127-6.973,18.793-17.502c14.262,13.275-4.572,31.703-18.754,17.287"/>
	<path fill="#FFFFFF" stroke="#18406A" stroke-width="0.5" stroke-miterlimit="10" d="M98.202,75.024
		c1.086-5.012,3.674-15.318-1.439-25.643c19.328-2.471,21.451,23.793,1.299,25.473"/>
	<path fill="#FFFFFF" stroke="#18406A" stroke-width="0.5" stroke-miterlimit="10" d="M72.282,31.962
		c-5.127-0.023-15.749-0.418-24.787,6.723c-6.425-18.396,18.828-25.917,24.648-6.551"/>
	<path fill="#FFFFFF" stroke="#18406A" stroke-width="0.5" stroke-miterlimit="10" d="M44.298,40.271
		c-3.276,3.943-10.331,11.893-10.563,23.408c-18.284-6.732-8.041-31.008,10.609-23.193"/>
	<path fill="#FFFFFF" stroke="#18406A" stroke-width="0.5" stroke-miterlimit="10" d="M34.061,67.677
		c1.263,4.971,3.541,15.35,12.72,22.313c-16.199,10.828-29.809-11.734-12.52-22.223"/>
	<g>
		<path fill="none" stroke="#FFFFFF" stroke-width="0.75" stroke-miterlimit="10" d="M39.911,55.708
			c2.861-19.568,39.108-31.084,52.668-3.5"/>
		<polyline fill="#FFFFFF" points="90.858,52.931 93.767,53.997 93.767,53.997 94.104,51.063 94.104,51.063 90.858,52.931 		"/>
	</g>
	<path fill="#1689E5" d="M87.04,90.694c3.545,3.967,8.164-1.15,4.49-4.146"/>
	<g>
		<path fill="none" stroke="#FFFFFF" stroke-width="0.75" stroke-miterlimit="10" d="M93.694,73.562
			c-2.863,19.57-39.11,31.086-52.67,3.5"/>
		<polyline fill="#FFFFFF" points="42.746,76.341 39.837,75.274 39.837,75.274 39.5,78.208 39.5,78.208 42.746,76.341 		"/>
	</g>
	<path fill="#1689E5" d="M59.055,96.663c-0.958,5.232,5.92,5.742,6.032,1.006"/>
	<path fill="#1689E5" d="M88.552,39.089c3.334-4.141-2.465-7.867-4.822-3.76"/>
	<path fill="#1689E5" d="M100.024,64.505c5.316-0.176,4.357-7.002-0.295-6.107"/>
	<path fill="#1689E5" d="M62.185,32.224c-1.145-5.195-7.678-3.002-5.949,1.406"/>
	<path fill="#1689E5" d="M38.252,48.005c-4.717-2.455-7.229,3.963-2.737,5.465"/>
	<path fill="#1689E5" d="M36.946,77.513c-4.729,2.434-0.938,8.191,2.882,5.393"/>
</g>
<g id="Layer_2" display="none">
	<g display="inline">
		<path fill="#FFFFFF" d="M34.248,58.99c-0.048,0.354-0.097,0.707-0.147,1.063c0.161,0.297,0.365,0.563,0.608,0.807
			c0.354,0.052,0.708,0.099,1.062,0.149c9.925-7.218,19.536-14.842,29.444-22.079c0.231,2.291-2.543,10.004-0.55,10.746
			c0.906,0.337,1.25-0.003,1.752-0.475c0.641-4.56,1.282-9.12,1.923-13.684c-0.16-0.297-0.364-0.563-0.606-0.805
			c-4.562-0.642-9.123-1.282-13.681-1.927c-0.604,0.246-1.079,0.873-0.957,1.671c0.31,1.994,8.755,1.495,10.379,2.304
			C54.166,44.182,43.869,51.515,34.248,58.99z"/>
	</g>
	
		<rect x="32.277" y="73.993" display="inline" fill="#A1D579" stroke="#FFFFFF" stroke-width="0.5" stroke-miterlimit="10" width="16.209" height="35.807"/>
	
		<rect x="49.486" y="62.395" display="inline" fill="#1689E5" stroke="#FCFCFC" stroke-width="0.5" stroke-miterlimit="10" width="16.209" height="47.405"/>
	
		<rect x="83.904" y="39.466" display="inline" fill="#1689E5" stroke="#FCFCFC" stroke-width="0.5" stroke-miterlimit="10" width="16.209" height="70.334"/>
	
		<rect x="66.695" y="51.409" display="inline" fill="#A1D579" stroke="#FFFFFF" stroke-width="0.5" stroke-miterlimit="10" width="16.209" height="58.306"/>
	<g id="XMLID_1_" display="inline">
		<g>
			<path fill="#FFFFFF" d="M92.479,21.273c2.42-0.04,4.659,0.119,7.091,0.069c-0.302,0.46-0.83,0.811-1.302,1.17
				c-1.39,1.062-2.97,2.19-4.358,3.312c0.76,2.238,1.37,4.619,2.148,6.829c-1.979-1.101-4-2.721-5.988-4.029
				c-1.972,1.39-3.96,2.75-5.91,4.16c0.54-2.17,1.35-4.631,2.01-6.892c-1.8-1.6-3.93-2.88-5.72-4.489
				c2.449,0.021,4.729-0.119,7.148-0.13c0.87-2.199,1.57-4.591,2.41-6.83C90.897,16.663,91.588,19.063,92.479,21.273z"/>
		</g>
	</g>
</g>
<g id="Layer_3" display="none">
	<g id="Layer_13" display="inline">
		<g>
			<path fill="#1689E5" stroke="#FCFCFC" stroke-width="0.5" stroke-miterlimit="10" d="M69.48,60.812
				c-1.75,1.009-3.635,1.845-5.615,2.555c1.393,3.015,2.742,6.062,4.31,8.939c1.123,0.103,1.82,0.532,2.619,0.886
				c-5.153,2.824-14.873,6.556-21.854,9.746c-4.952,2.266-10.69,6.312-15.696,1.613c-3.172-2.979-3.344-9.615,1.063-12.434
				c10.888-4.623,22.223-9.604,33.238-14.653C68.633,58.238,68.572,59.897,69.48,60.812z M35.433,76.087
				c-0.392,2.06-0.069,2.938-0.534,4.122c1.225,0.831,2.339,1.747,3.688,2.482c1.334-0.644,2.67-1.28,4.063-1.845
				c0.063-1.432,0.091-1.851,0.33-3.966c-1.094-0.876-2.259-1.7-3.507-2.459C38.252,75.143,36.898,75.687,35.433,76.087z"/>
			<path fill="#1689E5" stroke="#FCFCFC" stroke-width="0.5" stroke-miterlimit="10" d="M64.792,73.301
				c-1.391-2.909-1.459-3.273-2.806-6.215c-1.896,0.816,8.679-6.85,6.708-6.121c-0.234-1.324-1.035-2.214-1.576-3.303
				c3.529-1.798,6.65-3.05,10.238-4.507c1.42-14.677,15.15-19.593,26.645-12.953c-3.861,2.105-8.104,3.722-12.195,5.525
				c-0.314,3.287-0.494,5.701-0.846,9.369c2.404,2.123,5.416,3.782,7.998,5.771c4.258-1.908,7.811-3.634,12.352-5.327
				c-1.939,13.271-16.006,18.956-26.635,11.498c-2.311,1.048-20.638,9.278-22.917,10.369C61.474,76.795,64.351,74.164,64.792,73.301
				z"/>
		</g>
		<g>
			<g>
				<g>
					<g>
						<g>
							<path fill="#FFFFFF" d="M115.824,67.284l0.889,0.044c0.037-0.793,0.055-1.587,0.059-2.381h-0.889
								C115.879,65.726,115.859,66.505,115.824,67.284z"/>
							<path fill="#FFFFFF" d="M115.521,70.752l0.883,0.109c0.098-0.788,0.174-1.578,0.234-2.37l-0.887-0.065
								C115.693,69.203,115.617,69.979,115.521,70.752z"/>
							<path fill="#FFFFFF" d="M114.963,74.188l0.871,0.176c0.154-0.778,0.293-1.563,0.41-2.348l-0.879-0.131
								C115.25,72.656,115.115,73.423,114.963,74.188z"/>
							<path fill="#FFFFFF" d="M114.148,77.572l0.855,0.239c0.213-0.765,0.408-1.533,0.586-2.309l-0.867-0.196
								C114.549,76.065,114.357,76.821,114.148,77.572z"/>
							<path fill="#FFFFFF" d="M113.08,80.885l0.836,0.305c0.27-0.747,0.521-1.5,0.758-2.26l-0.85-0.262
								C113.594,79.414,113.346,80.152,113.08,80.885z"/>
							<path fill="#FFFFFF" d="M111.768,84.109l0.811,0.365c0.322-0.726,0.633-1.456,0.926-2.194l-0.826-0.324
								C112.389,82.68,112.086,83.397,111.768,84.109z"/>
							<path fill="#FFFFFF" d="M110.213,87.223l0.779,0.427c0.381-0.697,0.742-1.404,1.09-2.118l-0.801-0.387
								C110.941,85.845,110.586,86.539,110.213,87.223z"/>
						</g>
					</g>
					<g>
						<g>
							<path fill="#FFFFFF" d="M108.432,90.213l0.744,0.483c0.432-0.667,0.846-1.346,1.246-2.031l-0.77-0.445
								C109.26,88.894,108.855,89.559,108.432,90.213z"/>
							<path fill="#FFFFFF" d="M106.43,93.062l0.709,0.537c0.48-0.632,0.943-1.276,1.393-1.933l-0.732-0.501
								C107.357,91.808,106.902,92.442,106.43,93.062z"/>
							<path fill="#FFFFFF" d="M104.223,95.753l0.666,0.589c0.527-0.594,1.037-1.203,1.533-1.824l-0.693-0.554
								C105.242,94.574,104.742,95.171,104.223,95.753z"/>
							<path fill="#FFFFFF" d="M101.822,98.274l0.621,0.637c0.57-0.553,1.125-1.121,1.662-1.704l-0.648-0.604
								C102.926,97.174,102.383,97.733,101.822,98.274z"/>
							<path fill="#FFFFFF" d="M99.242,100.611l0.57,0.68c0.609-0.51,1.205-1.034,1.785-1.576l-0.604-0.651
								C100.424,99.595,99.838,100.11,99.242,100.611z"/>
							<path fill="#FFFFFF" d="M96.492,102.749l0.521,0.721c0.643-0.465,1.277-0.941,1.896-1.438l-0.555-0.694
								C97.748,101.823,97.125,102.292,96.492,102.749z"/>
							<path fill="#FFFFFF" d="M93.596,104.675l0.463,0.758c0.678-0.417,1.344-0.847,2-1.295l-0.502-0.732
								C94.914,103.844,94.26,104.266,93.596,104.675z"/>
						</g>
					</g>
					<g>
						<g>
							<path fill="#FFFFFF" d="M90.561,106.38l0.406,0.791c0.705-0.366,1.402-0.745,2.09-1.142l-0.445-0.771
								C91.938,105.649,91.252,106.022,90.561,106.38z"/>
							<path fill="#FFFFFF" d="M87.406,107.852l0.346,0.819c0.73-0.311,1.455-0.639,2.172-0.979l-0.387-0.802
								C88.834,107.226,88.123,107.547,87.406,107.852z"/>
							<path fill="#FFFFFF" d="M84.15,109.083l0.281,0.842c0.754-0.254,1.5-0.525,2.24-0.813l-0.324-0.826
								C85.621,108.565,84.889,108.833,84.15,109.083z"/>
							<path fill="#FFFFFF" d="M80.811,110.063l0.219,0.861c0.77-0.195,1.533-0.411,2.293-0.643l-0.262-0.851
								C82.314,109.66,81.564,109.871,80.811,110.063z"/>
							<path fill="#FFFFFF" d="M77.406,110.791l0.152,0.876c0.783-0.139,1.563-0.295,2.336-0.47l-0.195-0.866
								C78.938,110.501,78.174,110.656,77.406,110.791z"/>
							<path fill="#FFFFFF" d="M73.957,111.261l0.088,0.885c0.789-0.079,1.578-0.177,2.361-0.293l-0.131-0.879
								C75.506,111.088,74.732,111.183,73.957,111.261z"/>
							<path fill="#FFFFFF" d="M70.482,111.475l0.021,0.889c0.795-0.022,1.588-0.061,2.379-0.116l-0.064-0.887
								C72.041,111.416,71.262,111.453,70.482,111.475z"/>
						</g>
					</g>
					<g>
						<g>
							<path fill="#FFFFFF" d="M67,111.431l-0.043,0.889c0.793,0.036,1.588,0.055,2.381,0.059v-0.888
								C68.559,111.486,67.779,111.467,67,111.431z"/>
							<path fill="#FFFFFF" d="M63.534,111.129l-0.109,0.882c0.788,0.098,1.579,0.174,2.37,0.235l0.064-0.887
								C65.083,111.3,64.306,111.224,63.534,111.129z"/>
							<path fill="#FFFFFF" d="M60.097,110.571l-0.175,0.871c0.777,0.154,1.561,0.291,2.347,0.41l0.131-0.879
								C61.629,110.858,60.862,110.723,60.097,110.571z"/>
							<path fill="#FFFFFF" d="M56.713,109.755l-0.24,0.855c0.765,0.213,1.534,0.408,2.309,0.586l0.196-0.866
								C58.219,110.157,57.464,109.964,56.713,109.755z"/>
							<path fill="#FFFFFF" d="M53.4,108.688l-0.304,0.836c0.747,0.27,1.5,0.522,2.259,0.759l0.261-0.851
								C54.872,109.202,54.133,108.953,53.4,108.688z"/>
							<path fill="#FFFFFF" d="M50.176,107.375l-0.366,0.81c0.726,0.324,1.456,0.635,2.195,0.927l0.323-0.826
								C51.605,107.997,50.888,107.693,50.176,107.375z"/>
							<path fill="#FFFFFF" d="M47.062,105.821l-0.426,0.779c0.697,0.381,1.404,0.741,2.118,1.091l0.386-0.802
								C48.44,106.548,47.747,106.194,47.062,105.821z"/>
						</g>
					</g>
					<g>
						<g>
							<path fill="#FFFFFF" d="M44.072,104.039l-0.482,0.745c0.667,0.433,1.346,0.846,2.03,1.245l0.445-0.77
								C45.391,104.868,44.726,104.462,44.072,104.039z"/>
							<path fill="#FFFFFF" d="M41.223,102.038l-0.537,0.708c0.632,0.48,1.277,0.942,1.934,1.393l0.5-0.732
								C42.477,102.964,41.843,102.51,41.223,102.038z"/>
							<path fill="#FFFFFF" d="M38.532,99.831l-0.589,0.666c0.595,0.528,1.203,1.037,1.823,1.533l0.555-0.694
								C39.711,100.849,39.114,100.349,38.532,99.831z"/>
							<path fill="#FFFFFF" d="M36.01,97.43l-0.636,0.62c0.552,0.57,1.12,1.125,1.704,1.663l0.604-0.65
								C37.111,98.534,36.552,97.991,36.01,97.43z"/>
							<path fill="#FFFFFF" d="M33.674,94.849l-0.68,0.571c0.51,0.608,1.033,1.205,1.575,1.785l0.651-0.604
								C34.69,96.032,34.175,95.447,33.674,94.849z"/>
							<path fill="#FFFFFF" d="M31.536,92.101l-0.721,0.521c0.464,0.644,0.942,1.277,1.439,1.896l0.693-0.555
								C32.462,93.356,31.993,92.733,31.536,92.101z"/>
							<path fill="#FFFFFF" d="M29.61,89.204l-0.758,0.463c0.416,0.677,0.848,1.345,1.295,2l0.733-0.501
								C30.44,90.522,30.018,89.867,29.61,89.204z"/>
						</g>
					</g>
					<g>
						<g>
							<path fill="#FFFFFF" d="M27.905,86.168l-0.791,0.405c0.366,0.705,0.745,1.402,1.143,2.091l0.77-0.445
								C28.635,87.544,28.263,86.86,27.905,86.168z"/>
							<path fill="#FFFFFF" d="M26.433,83.013l-0.819,0.347c0.312,0.73,0.64,1.453,0.98,2.171l0.801-0.387
								C27.059,84.44,26.737,83.731,26.433,83.013z"/>
							<path fill="#FFFFFF" d="M25.202,79.757l-0.842,0.283c0.254,0.752,0.526,1.498,0.813,2.238L26,81.955
								C25.719,81.228,25.452,80.496,25.202,79.757z"/>
							<path fill="#FFFFFF" d="M24.221,76.417l-0.86,0.219c0.195,0.771,0.411,1.534,0.644,2.294l0.849-0.262
								C24.625,77.923,24.415,77.173,24.221,76.417z"/>
							<path fill="#FFFFFF" d="M23.495,73.014l-0.877,0.153c0.139,0.782,0.296,1.561,0.471,2.335l0.865-0.196
								C23.784,74.545,23.629,73.782,23.495,73.014z"/>
							<path fill="#FFFFFF" d="M23.024,69.565l-0.885,0.088c0.08,0.789,0.177,1.577,0.293,2.363l0.879-0.132
								C23.197,71.114,23.102,70.34,23.024,69.565z"/>
							<path fill="#FFFFFF" d="M22.81,66.09l-0.888,0.021c0.021,0.794,0.06,1.587,0.116,2.379l0.887-0.065
								C22.87,67.649,22.833,66.87,22.81,66.09z"/>
						</g>
					</g>
					<g>
						<g>
							<path fill="#FFFFFF" d="M22.854,62.609l-0.888-0.044c-0.037,0.793-0.055,1.587-0.06,2.381h0.889
								C22.799,64.167,22.818,63.387,22.854,62.609z"/>
							<path fill="#FFFFFF" d="M23.157,59.14l-0.883-0.108c-0.097,0.788-0.174,1.579-0.234,2.37l0.887,0.065
								C22.985,60.69,23.061,59.915,23.157,59.14z"/>
							<path fill="#FFFFFF" d="M23.714,55.705l-0.871-0.175c-0.155,0.778-0.292,1.562-0.411,2.347l0.879,0.131
								C23.428,57.237,23.562,56.469,23.714,55.705z"/>
							<path fill="#FFFFFF" d="M24.53,52.321l-0.854-0.24c-0.213,0.765-0.409,1.534-0.586,2.309l0.866,0.197
								C24.128,53.827,24.321,53.072,24.53,52.321z"/>
							<path fill="#FFFFFF" d="M25.597,49.008l-0.835-0.305c-0.27,0.747-0.523,1.5-0.758,2.259l0.849,0.262
								C25.083,50.479,25.333,49.741,25.597,49.008z"/>
							<path fill="#FFFFFF" d="M26.911,45.784L26.1,45.417c-0.324,0.726-0.634,1.457-0.926,2.195l0.827,0.323
								C26.289,47.212,26.592,46.496,26.911,45.784z"/>
							<path fill="#FFFFFF" d="M28.464,42.669l-0.78-0.426c-0.379,0.698-0.741,1.403-1.089,2.118l0.8,0.387
								C27.737,44.047,28.091,43.354,28.464,42.669z"/>
						</g>
					</g>
					<g>
						<g>
							<path fill="#FFFFFF" d="M30.247,39.679l-0.745-0.482c-0.433,0.667-0.847,1.346-1.245,2.03l0.769,0.445
								C29.417,40.999,29.823,40.333,30.247,39.679z"/>
							<path fill="#FFFFFF" d="M32.248,36.831l-0.708-0.537c-0.48,0.632-0.943,1.277-1.394,1.933l0.733,0.501
								C31.321,38.084,31.775,37.451,32.248,36.831z"/>
							<path fill="#FFFFFF" d="M34.455,34.139l-0.666-0.589c-0.528,0.594-1.037,1.203-1.532,1.824l0.693,0.554
								C33.436,35.319,33.936,34.721,34.455,34.139z"/>
							<path fill="#FFFFFF" d="M36.855,31.618l-0.62-0.637c-0.569,0.553-1.125,1.121-1.662,1.704l0.65,0.604
								C35.751,32.718,36.295,32.16,36.855,31.618z"/>
							<path fill="#FFFFFF" d="M39.436,29.282l-0.571-0.681c-0.607,0.511-1.204,1.034-1.784,1.576l0.604,0.651
								C38.252,30.297,38.838,29.783,39.436,29.282z"/>
							<path fill="#FFFFFF" d="M42.184,27.144l-0.52-0.721c-0.645,0.464-1.277,0.942-1.897,1.439l0.556,0.693
								C40.929,28.07,41.552,27.6,42.184,27.144z"/>
							<path fill="#FFFFFF" d="M45.082,25.217l-0.464-0.758c-0.677,0.416-1.345,0.847-2,1.295l0.502,0.733
								C43.763,26.047,44.418,25.626,45.082,25.217z"/>
						</g>
					</g>
					<g>
						<g>
							<path fill="#FFFFFF" d="M48.118,23.512l-0.406-0.791c-0.705,0.366-1.403,0.745-2.091,1.143l0.443,0.77
								C46.741,24.243,47.425,23.871,48.118,23.512z"/>
							<path fill="#FFFFFF" d="M51.272,22.041l-0.346-0.819c-0.73,0.312-1.455,0.64-2.171,0.98l0.386,0.801
								C49.844,22.667,50.554,22.345,51.272,22.041z"/>
							<path fill="#FFFFFF" d="M54.528,20.81l-0.282-0.842c-0.752,0.254-1.498,0.526-2.238,0.813l0.324,0.827
								C53.057,21.327,53.79,21.059,54.528,20.81z"/>
							<path fill="#FFFFFF" d="M57.868,19.829l-0.22-0.86c-0.77,0.195-1.534,0.411-2.293,0.644l0.261,0.849
								C56.362,20.233,57.112,20.022,57.868,19.829z"/>
							<path fill="#FFFFFF" d="M61.271,19.102l-0.152-0.876c-0.781,0.139-1.562,0.295-2.335,0.471l0.195,0.865
								C59.741,19.39,60.503,19.237,61.271,19.102z"/>
							<path fill="#FFFFFF" d="M64.72,18.631l-0.087-0.885c-0.79,0.08-1.578,0.177-2.363,0.293l0.131,0.879
								C63.171,18.804,63.945,18.709,64.72,18.631z"/>
							<path fill="#FFFFFF" d="M68.195,18.417l-0.021-0.888c-0.793,0.021-1.586,0.06-2.378,0.115l0.064,0.888
								C66.637,18.477,67.416,18.44,68.195,18.417z"/>
						</g>
					</g>
					<g>
						<g>
							<path fill="#FFFFFF" d="M71.676,18.461l0.045-0.888c-0.793-0.037-1.588-0.056-2.381-0.061v0.89
								C70.117,18.407,70.898,18.425,71.676,18.461z"/>
							<path fill="#FFFFFF" d="M75.145,18.763l0.109-0.882c-0.787-0.097-1.578-0.174-2.371-0.235l-0.064,0.888
								C73.596,18.592,74.371,18.668,75.145,18.763z"/>
							<path fill="#FFFFFF" d="M78.58,19.322l0.176-0.871c-0.779-0.154-1.563-0.292-2.348-0.411l-0.131,0.879
								C77.049,19.036,77.816,19.169,78.58,19.322z"/>
							<path fill="#FFFFFF" d="M81.965,20.137l0.24-0.854c-0.766-0.213-1.535-0.409-2.311-0.586l-0.195,0.866
								C80.459,19.736,81.213,19.928,81.965,20.137z"/>
							<path fill="#FFFFFF" d="M85.277,21.205l0.305-0.835c-0.746-0.271-1.5-0.523-2.26-0.758l-0.262,0.849
								C83.807,20.69,84.545,20.94,85.277,21.205z"/>
							<path fill="#FFFFFF" d="M88.502,22.518l0.365-0.81c-0.727-0.324-1.457-0.634-2.195-0.926l-0.324,0.827
								C87.072,21.896,87.789,22.2,88.502,22.518z"/>
							<path fill="#FFFFFF" d="M91.615,24.072l0.428-0.78c-0.697-0.379-1.404-0.741-2.119-1.089l-0.385,0.8
								C90.236,23.344,90.932,23.699,91.615,24.072z"/>
						</g>
					</g>
					<g>
						<g>
							<path fill="#FFFFFF" d="M94.605,25.854l0.482-0.744c-0.666-0.433-1.344-0.847-2.029-1.245l-0.445,0.769
								C93.285,25.024,93.951,25.43,94.605,25.854z"/>
							<path fill="#FFFFFF" d="M97.455,27.856l0.535-0.709c-0.631-0.479-1.275-0.942-1.932-1.393l-0.502,0.733
								C96.199,26.928,96.834,27.382,97.455,27.856z"/>
							<path fill="#FFFFFF" d="M100.146,30.062l0.588-0.666c-0.594-0.527-1.203-1.036-1.822-1.531l-0.555,0.692
								C98.965,29.043,99.564,29.543,100.146,30.062z"/>
							<path fill="#FFFFFF" d="M102.668,32.462l0.635-0.62c-0.551-0.57-1.121-1.125-1.703-1.663l-0.604,0.651
								C101.566,31.359,102.125,31.903,102.668,32.462z"/>
							<path fill="#FFFFFF" d="M105.002,35.043l0.682-0.571c-0.51-0.607-1.035-1.205-1.576-1.784l-0.65,0.604
								C103.988,33.861,104.502,34.447,105.002,35.043z"/>
							<path fill="#FFFFFF" d="M107.141,37.792l0.721-0.521c-0.465-0.644-0.941-1.276-1.438-1.896l-0.695,0.555
								C106.215,36.538,106.686,37.16,107.141,37.792z"/>
							<path fill="#FFFFFF" d="M109.068,40.69l0.758-0.464c-0.416-0.677-0.848-1.344-1.295-2l-0.732,0.501
								C108.236,39.371,108.658,40.026,109.068,40.69z"/>
						</g>
					</g>
					<g>
						<g>
							<path fill="#FFFFFF" d="M110.773,43.725l0.791-0.405c-0.367-0.705-0.746-1.402-1.143-2.092l-0.77,0.445
								C110.043,42.348,110.414,43.033,110.773,43.725z"/>
							<path fill="#FFFFFF" d="M112.244,46.879l0.818-0.346c-0.311-0.73-0.639-1.454-0.979-2.171l-0.803,0.386
								C111.617,45.452,111.939,46.162,112.244,46.879z"/>
							<path fill="#FFFFFF" d="M113.475,50.135l0.842-0.282c-0.254-0.753-0.525-1.499-0.813-2.238l-0.826,0.323
								C112.959,48.665,113.225,49.397,113.475,50.135z"/>
							<path fill="#FFFFFF" d="M114.455,53.475l0.861-0.219c-0.195-0.77-0.412-1.534-0.643-2.293l-0.852,0.262
								C114.053,51.97,114.264,52.72,114.455,53.475z"/>
							<path fill="#FFFFFF" d="M115.184,56.878l0.875-0.152c-0.139-0.781-0.295-1.562-0.469-2.336l-0.867,0.196
								C114.895,55.347,115.049,56.111,115.184,56.878z"/>
							<path fill="#FFFFFF" d="M115.654,60.328l0.885-0.087c-0.08-0.79-0.178-1.578-0.293-2.363l-0.879,0.131
								C115.48,58.78,115.574,59.553,115.654,60.328z"/>
							<path fill="#FFFFFF" d="M115.867,63.802l0.889-0.021c-0.023-0.794-0.061-1.587-0.117-2.379l-0.887,0.064
								C115.809,62.245,115.846,63.024,115.867,63.802z"/>
						</g>
					</g>
				</g>
			</g>
		</g>
		<polyline fill="#A1D579" points="61.991,81.247 69.92,84.879 67.541,66.115 61.991,81.247 52.263,84.544 69.92,39.184 
			79.436,95.981 51.684,84.879 		"/>
		<g>
			<path fill="#FAFDFF" d="M39.142,49.557c0.3,0,0.599,0,0.9,0c0.119,0.034,0.271,0.035,0.416,0.043
				c-0.029,0.285-0.064,0.565-0.088,0.857c0.695,0.146,1.4,0.282,1.954,0.57c0.151-0.235,0.222-0.556,0.373-0.79
				c0.601,0.233,1.103,0.566,1.58,0.922c-0.134,0.269-0.346,0.46-0.505,0.702c0.484,0.454,0.997,0.879,1.363,1.451
				c0.251-0.15,0.46-0.346,0.702-0.507c0.413,0.464,0.693,1.063,0.943,1.69c-0.291,0.083-0.522,0.224-0.813,0.309
				c0.203,0.588,0.41,1.17,0.438,1.934c0.242,0.013,0.591-0.056,0.879-0.067c0.014,0.047-0.026,0.146,0.022,0.154
				c0,0.424,0,0.849,0,1.272c-0.05,0.01-0.01,0.108-0.022,0.154c-0.294-0.028-0.598-0.047-0.879-0.089
				c-0.026,0.764-0.225,1.356-0.438,1.934c0.258,0.123,0.527,0.233,0.813,0.329c-0.239,0.631-0.541,1.2-0.924,1.691
				c-0.256-0.147-0.466-0.34-0.701-0.506c-0.402,0.533-0.863,1.01-1.385,1.428c0.143,0.269,0.374,0.445,0.505,0.725
				c-0.469,0.356-0.979,0.674-1.559,0.922c-0.177-0.209-0.247-0.527-0.373-0.791c-0.581,0.263-1.231,0.453-1.978,0.551
				c0.021,0.304,0.06,0.585,0.089,0.879c-0.608,0.059-1.38,0.077-1.934-0.044c0.027-0.28,0.071-0.545,0.11-0.813
				c-0.611-0.15-1.266-0.26-1.779-0.506c-0.146,0.227-0.232,0.514-0.352,0.77c-0.701-0.28-1.291-0.671-1.845-1.099
				c0.132-0.256,0.341-0.436,0.505-0.658c-0.431-0.403-0.869-0.799-1.207-1.296c-0.25,0.139-0.457,0.318-0.681,0.482
				c-0.392-0.524-0.723-1.107-0.967-1.779c0.263-0.088,0.496-0.206,0.769-0.284c-0.214-0.533-0.371-1.122-0.438-1.802
				c-0.297-0.004-0.519,0.068-0.813,0.065c-0.014-0.046,0.026-0.144-0.021-0.153c0-0.497,0-0.994,0-1.493
				c-0.041-0.326,0.631-0.02,0.835-0.088c0.067-0.679,0.226-1.267,0.438-1.8c-0.269-0.092-0.537-0.181-0.769-0.31
				c0.259-0.648,0.574-1.239,0.967-1.756c0.224,0.163,0.431,0.347,0.681,0.483c0.343-0.485,0.754-0.901,1.207-1.274
				c-0.146-0.24-0.357-0.418-0.505-0.658c0.527-0.462,1.146-0.83,1.845-1.12c0.106,0.26,0.221,0.513,0.33,0.769
				c0.541-0.219,1.143-0.38,1.801-0.482c-0.033-0.28-0.084-0.545-0.11-0.834C38.7,49.582,38.955,49.604,39.142,49.557z
				 M36.814,52.345c-0.66,0.375-1.151,0.787-1.604,1.296c-0.862,0.975-1.547,2.405-1.384,4.35c0.146,1.745,0.918,2.88,1.933,3.844
				c0.938,0.89,2.459,1.577,4.305,1.427c1.702-0.139,2.935-0.938,3.819-1.955c0.908-1.039,1.511-2.482,1.406-4.327
				c-0.099-1.728-0.979-3.035-1.909-3.863c-0.981-0.869-2.429-1.599-4.327-1.449C38.208,51.731,37.417,52.003,36.814,52.345z"/>
		</g>
		<g>
			<path fill="#FAFDFF" d="M55.279,29.797c0.196,0,0.394,0,0.593,0c0.078,0.023,0.177,0.024,0.272,0.029
				c-0.02,0.187-0.044,0.37-0.059,0.563c0.456,0.097,0.92,0.186,1.282,0.375c0.101-0.154,0.146-0.365,0.244-0.52
				c0.395,0.152,0.725,0.373,1.037,0.604c-0.088,0.176-0.227,0.303-0.33,0.462c0.316,0.298,0.653,0.576,0.895,0.951
				c0.165-0.099,0.303-0.226,0.461-0.332c0.271,0.306,0.455,0.698,0.619,1.109c-0.191,0.055-0.343,0.146-0.532,0.203
				c0.131,0.385,0.269,0.769,0.287,1.269c0.158,0.009,0.387-0.037,0.577-0.045c0.009,0.03-0.02,0.096,0.015,0.102
				c0,0.278,0,0.559,0,0.837c-0.032,0.006-0.006,0.07-0.015,0.102c-0.193-0.021-0.393-0.03-0.577-0.059
				c-0.018,0.501-0.146,0.89-0.287,1.269c0.168,0.08,0.345,0.153,0.532,0.217c-0.157,0.414-0.355,0.787-0.605,1.109
				c-0.168-0.096-0.306-0.224-0.462-0.332c-0.264,0.351-0.564,0.663-0.905,0.938c0.092,0.177,0.243,0.292,0.329,0.477
				c-0.309,0.232-0.643,0.441-1.021,0.604c-0.116-0.138-0.163-0.346-0.245-0.519c-0.381,0.172-0.808,0.297-1.297,0.36
				c0.013,0.198,0.039,0.384,0.059,0.575c-0.399,0.039-0.904,0.052-1.269-0.027c0.018-0.186,0.046-0.357,0.071-0.532
				c-0.4-0.1-0.829-0.171-1.168-0.332c-0.097,0.148-0.152,0.336-0.23,0.504c-0.461-0.184-0.848-0.439-1.209-0.721
				c0.085-0.168,0.223-0.285,0.33-0.433c-0.282-0.266-0.571-0.523-0.793-0.851c-0.163,0.091-0.299,0.209-0.446,0.316
				c-0.256-0.345-0.475-0.729-0.634-1.168c0.174-0.059,0.325-0.137,0.505-0.188c-0.142-0.35-0.245-0.736-0.289-1.182
				c-0.194-0.003-0.34,0.045-0.532,0.042c-0.01-0.029,0.018-0.094-0.015-0.101c0-0.326,0-0.651,0-0.979
				c-0.028-0.214,0.414-0.014,0.547-0.059c0.044-0.444,0.147-0.831,0.289-1.182c-0.177-0.06-0.354-0.118-0.505-0.201
				c0.17-0.427,0.378-0.813,0.634-1.151c0.147,0.105,0.283,0.226,0.446,0.314c0.226-0.318,0.495-0.59,0.793-0.836
				c-0.096-0.157-0.234-0.273-0.33-0.431c0.346-0.305,0.751-0.546,1.209-0.736c0.07,0.17,0.145,0.336,0.217,0.504
				c0.355-0.143,0.749-0.249,1.183-0.315c-0.021-0.186-0.057-0.358-0.071-0.549C54.987,29.813,55.157,29.83,55.279,29.797z
				 M53.75,31.628c-0.433,0.246-0.756,0.516-1.053,0.85c-0.565,0.64-1.017,1.579-0.908,2.854c0.097,1.145,0.604,1.889,1.269,2.521
				c0.617,0.584,1.614,1.035,2.825,0.938c1.118-0.091,1.926-0.615,2.507-1.282c0.597-0.683,0.992-1.631,0.923-2.839
				c-0.063-1.135-0.642-1.994-1.253-2.536c-0.644-0.571-1.593-1.051-2.84-0.952C54.667,31.225,54.147,31.404,53.75,31.628z"/>
		</g>
		<g>
			<path fill="#FAFDFF" d="M94.029,81.536c0.195,0,0.395,0,0.592,0c0.078,0.021,0.178,0.023,0.273,0.029
				c-0.02,0.187-0.043,0.37-0.059,0.563c0.457,0.096,0.92,0.185,1.281,0.374c0.102-0.154,0.146-0.364,0.246-0.519
				c0.395,0.152,0.725,0.371,1.037,0.604c-0.09,0.176-0.227,0.302-0.332,0.462c0.318,0.298,0.654,0.575,0.895,0.951
				c0.166-0.098,0.305-0.226,0.463-0.332c0.27,0.305,0.455,0.697,0.619,1.109c-0.191,0.055-0.346,0.146-0.533,0.202
				c0.131,0.387,0.268,0.77,0.287,1.269c0.16,0.01,0.387-0.035,0.578-0.044c0.008,0.03-0.02,0.096,0.014,0.101
				c0,0.279,0,0.56,0,0.836c-0.033,0.008-0.006,0.071-0.014,0.104c-0.195-0.021-0.395-0.031-0.578-0.06
				c-0.02,0.501-0.146,0.891-0.287,1.271c0.168,0.08,0.346,0.151,0.533,0.216c-0.158,0.414-0.355,0.787-0.605,1.108
				c-0.168-0.097-0.307-0.223-0.461-0.331c-0.266,0.351-0.566,0.663-0.908,0.938c0.094,0.176,0.244,0.293,0.33,0.477
				c-0.307,0.232-0.641,0.441-1.021,0.604c-0.117-0.138-0.162-0.346-0.244-0.52c-0.383,0.172-0.809,0.297-1.299,0.36
				c0.014,0.198,0.039,0.386,0.059,0.576c-0.398,0.039-0.904,0.051-1.268-0.028c0.018-0.184,0.047-0.357,0.07-0.532
				c-0.398-0.1-0.828-0.171-1.166-0.331c-0.098,0.146-0.154,0.336-0.23,0.504c-0.461-0.185-0.848-0.44-1.211-0.721
				c0.086-0.17,0.225-0.286,0.332-0.433c-0.283-0.266-0.572-0.523-0.793-0.851c-0.164,0.09-0.299,0.209-0.447,0.314
				c-0.256-0.343-0.475-0.727-0.633-1.166c0.172-0.058,0.324-0.137,0.504-0.187c-0.141-0.352-0.244-0.737-0.289-1.184
				c-0.193-0.003-0.34,0.044-0.533,0.044c-0.008-0.029,0.02-0.096-0.014-0.102c0-0.326,0-0.653,0-0.979
				c-0.027-0.216,0.414-0.014,0.547-0.059c0.045-0.444,0.148-0.831,0.289-1.182c-0.176-0.061-0.354-0.118-0.504-0.201
				c0.17-0.428,0.377-0.815,0.633-1.153c0.148,0.107,0.283,0.227,0.447,0.316c0.225-0.318,0.494-0.59,0.793-0.836
				c-0.098-0.157-0.236-0.273-0.332-0.433c0.348-0.303,0.752-0.545,1.211-0.734c0.068,0.17,0.145,0.336,0.217,0.504
				c0.355-0.144,0.748-0.249,1.182-0.316c-0.021-0.185-0.055-0.357-0.072-0.548C93.738,81.551,93.906,81.567,94.029,81.536z
				 M92.502,83.367c-0.434,0.246-0.756,0.516-1.053,0.85c-0.566,0.639-1.016,1.579-0.908,2.854c0.098,1.146,0.604,1.89,1.268,2.521
				c0.617,0.584,1.615,1.036,2.826,0.938c1.117-0.093,1.926-0.615,2.506-1.282c0.596-0.683,0.992-1.631,0.924-2.84
				c-0.063-1.136-0.643-1.992-1.254-2.535c-0.645-0.571-1.592-1.051-2.84-0.953C93.418,82.963,92.898,83.142,92.502,83.367z"/>
		</g>
		<polyline fill="none" stroke="#FCFCFC" stroke-width="0.5" stroke-miterlimit="10" points="79.221,95.981 51.898,84.578 
			70.152,39.125 79.221,95.981 		"/>
		<polyline fill="none" stroke="#FCFCFC" stroke-width="0.5" stroke-miterlimit="10" points="70.439,84.886 61.988,80.999 
			67.635,65.501 70.439,84.886 		"/>
	</g>
</g>
</svg>
